{"title":"Cannibal! The Musical (Alferd Packer) (1993, Trey Parker)","uid":11243260,"size":1557043719,"categoryP":"video","categoryS":"movies","magnet":"?xt=urn:btih:e879213bb22ebc2d0845ac0357451b6b9ba687df&amp;dn=Cannibal%21+The+Musical+%28Alferd+Packer%29+%281993%2C+Trey+Parker%29&amp;tr=udp%3A%2F%2Ftracker.openbittorrent.com%3A80&amp;tr=udp%3A%2F%2Fopen.demonii.com%3A1337&amp;tr=udp%3A%2F%2Ftracker.coppersurfer.tk%3A6969&amp;tr=udp%3A%2F%2Fexodus.desync.com%3A6969","seeders":2,"leechers":0,"uploader":null,"files":1,"time":1413696743,"description":"I spent some time trying to find the best quality available... Couldn't find any DVD iso, so here's the best I could fiund  !\n\nThis was merged from several releases :\n\nCannibal.The.Musical.1993.Dvdrip.Xvid-NGP (Video and Movie audio)\nCannibal.The.Musical.1996.Dual.Audio.iNTERNAL.DVDRip (Commentary track)\n\nSubs taken from the web.\n\n\n\nGeneral\nComplete name                            : Cannibal! The Musical -- Alferd Packer: The Musical (1993, Trey Parker).mkv\nFormat                                   : Matroska\nFile size                                : 1.45 GiB\nDuration                                 : 1h 36mn\nOverall bit rate mode                    : Variable\n\nVideo\nFormat                                   : MPEG-4 Visual\nFormat profile                           : Advanced Simple@L5\nFormat settings, BVOP                    : Yes\nFormat settings, QPel                    : No\nFormat settings, GMC                     : No warppoints\nFormat settings, Matrix                  : Default (H.263)\nCodec ID/Hint                            : XviD\nBit rate                                 : 1 849 Kbps\nWidth                                    : 720 pixels\nHeight                                   : 544 pixels\nDisplay aspect ratio                     : 4:3\nFrame rate                               : 23.976 fps\nBits/(Pixel*Frame)                       : 0.197\nStream size                              : 1.25 GiB (86%)\nWriting library                          : XviD 1.2.0.dev47 (UTC 2006-11-01)\n\nAudio #1\nCodec ID/Hint                            : MP3\nMode                                     : Joint stereo\nBit rate                                 : 128 Kbps\nChannel(s)                               : 2 channels\nSampling rate                            : 48.0 KHz\nStream size                              : 88.5 MiB (6%)\nTitle                                    : Movie\nWriting library                          : LAME3.97 \nEncoding settings                        : -m j -V 4 -q 2 -lowpass 17 -b 128\nLanguage                                 : English\n\nAudio #2\nCodec ID/Hint                            : MP3\nBit rate mode                            : Variable\nBit rate                                 : 129 Kbps\nChannel(s)                               : 2 channels\nSampling rate                            : 48.0 KHz\nCompression mode                         : Lossy\nStream size                              : 89.2 MiB (6%)\nTitle                                    : Drunk Commentary\nWriting library                          : LAME3.93 \nEncoding settings                        : -m s -V 7 -q 2 -lowpass 13.8 --vbr-old -b 32\nLanguage                                 : English\n\nText #1\nCodec ID/Info                            : UTF-8 Plain Text\nTitle                                    : Songs only\nLanguage                                 : English\n\nText #2\nCodec ID/Info                            : UTF-8 Plain Text\nLanguage                                 : French\n\nText #3\nCodec ID/Info                            : UTF-8 Plain Text\nLanguage                                 : Portuguese\n\n\n\nDonations:\n\nBitCoin   -   1139niF1wsrgcaUCaj42JH8Eqy7jaae1dY\nLiteCoin   -   Lg7J7r966tkkNRj47XKiDW4bGoS9WCNzQc","torrent":{"xt":"urn:btih:e879213bb22ebc2d0845ac0357451b6b9ba687df","amp;dn":"Cannibal%21+The+Musical+%28Alferd+Packer%29+%281993%2C+Trey+Parker%29","amp;tr":["udp%3A%2F%2Ftracker.openbittorrent.com%3A80","udp%3A%2F%2Fopen.demonii.com%3A1337","udp%3A%2F%2Ftracker.coppersurfer.tk%3A6969","udp%3A%2F%2Fexodus.desync.com%3A6969"],"infoHash":"e879213bb22ebc2d0845ac0357451b6b9ba687df","infoHashBuffer":{"type":"Buffer","data":[232,121,33,59,178,46,188,45,8,69,172,3,87,69,27,107,155,166,135,223]},"announce":[],"urlList":[]}}